# xmcd
#
# Track frame offsets:
#	150
#	14262
#	29242
#	44177
#	60290
#	77027
#	93065
#	108875
#	125552
#	138360
#	149252
#	161997
#	183662
#	196625
#	213005
#	228642
#	246002
#	260340
#	274425
#	291800
#	308120
#
# Disc length: 4302 seconds
#
# Revision: 1
# Processed by: cddbd v1.5.2PL0 Copyright (c) Steve Scherf et al.
# Submitted via: audiograbber 1.83.01
#
DISCID=3310cc15
DTITLE=CBS Records - Country Hits Of The 80's v. 3
DYEAR=1990
DGENRE=Country
TTITLE0=Exile - Woke Up In Love
TTITLE1=Ricky Skaggs - Don't Cheat In Your Hometown
TTITLE2=Janie Fricke - Let's Stop Talkin' About It
TTITLE3=Julio Iglesias and Willie Nelson - To All The Girls I've Loved Before
TTITLE4=David Allan Coe - Mona Lisa Lost Her Smile
TTITLE5=Merle Haggard - Someday When Things Are Good
TTITLE6=Ricky Skaggs - Honey (Open That Door)
TTITLE7=Exile - I Don't Want To Be A Memory
TTITLE8=Merle Haggard - Let's Chase Each Other Around The Room Tonight
TTITLE9=Ricky Skaggs - Uncle Pen
TTITLE10=Exile - Give Me One More Chance
TTITLE11=Willie Nelson - City Of New Orleans
TTITLE12=Janie Fricke - Your Heart's Not In It
TTITLE13=Merle Haggard - A Place To Fall Apart
TTITLE14=Exile - Crazy For Your Love
TTITLE15=Ray Charles and Willie Nelson - Seven Spanish Angels
TTITLE16=Charly McClain - Radio Heart
TTITLE17=Merle Haggard - Natural High
TTITLE18=Ricky Skaggs - Country Boy
TTITLE19=Exile - She's A Miracle
TTITLE20=Willie Nelson - Forgiving You Was Easy
EXTD=
EXTT0=
EXTT1=
EXTT2=
EXTT3=
EXTT4=
EXTT5=
EXTT6=
EXTT7=
EXTT8=
EXTT9=
EXTT10=
EXTT11=
EXTT12=
EXTT13=
EXTT14=
EXTT15=
EXTT16=
EXTT17=
EXTT18=
EXTT19=
EXTT20=
PLAYORDER=
